<svg width="50" height="50" viewBox="0 0 50 50" fill="none" xmlns="http://www.w3.org/2000/svg">
<path d="M8.41568 38.6126H41.5835C43.5719 38.6126 44.7443 37.5876 44.7443 36.0804C44.7443 33.9876 42.63 32.1045 40.8094 30.242C39.4282 28.7983 39.0514 25.8269 38.905 23.4206C38.738 15.3849 36.6246 9.83936 31.0371 7.83043C30.263 5.10989 28.0862 2.93311 25.0103 2.93311C21.9121 2.93311 19.7576 5.10989 18.9621 7.83043C13.396 9.83936 11.2612 15.384 11.1148 23.4197C10.9478 25.8269 10.5916 28.7983 9.18979 30.242C7.38979 32.1045 5.25586 33.9876 5.25586 36.0813C5.25586 37.5876 6.44872 38.6126 8.41568 38.6126ZM18.6273 41.459C18.8791 44.5144 21.4523 47.0661 25.0103 47.0661C28.546 47.0661 31.1201 44.5144 31.3925 41.459H18.6273Z" fill="#BABABA"/>
</svg>
