<svg width="41" height="41" viewBox="0 0 41 41" fill="none" xmlns="http://www.w3.org/2000/svg">
<path d="M15.9486 27.1784C12.9208 27.1784 10.3586 26.1295 8.2619 24.0317C6.16524 21.9339 5.11635 19.3717 5.11524 16.3451C5.11412 13.3184 6.16301 10.7562 8.2619 8.65839C10.3608 6.56061 12.923 5.51172 15.9486 5.51172C18.9741 5.51172 21.5369 6.56061 23.6369 8.65839C25.7369 10.7562 26.7852 13.3184 26.7819 16.3451C26.7819 17.5673 26.5875 18.7201 26.1986 19.8034C25.8097 20.8867 25.2819 21.8451 24.6152 22.6784L33.9486 32.0117C34.2541 32.3173 34.4069 32.7062 34.4069 33.1784C34.4069 33.6506 34.2541 34.0395 33.9486 34.3451C33.643 34.6506 33.2541 34.8034 32.7819 34.8034C32.3097 34.8034 31.9208 34.6506 31.6152 34.3451L22.2819 25.0117C21.4486 25.6784 20.4902 26.2062 19.4069 26.5951C18.3236 26.9839 17.1708 27.1784 15.9486 27.1784ZM15.9486 23.8451C18.0319 23.8451 19.803 23.1162 21.2619 21.6584C22.7208 20.2006 23.4497 18.4295 23.4486 16.3451C23.4475 14.2606 22.7186 12.4901 21.2619 11.0334C19.8052 9.57672 18.0341 8.84727 15.9486 8.84505C13.863 8.84283 12.0925 9.57227 10.6369 11.0334C9.18135 12.4945 8.4519 14.2651 8.44857 16.3451C8.44524 18.4251 9.17468 20.1962 10.6369 21.6584C12.0991 23.1206 13.8697 23.8495 15.9486 23.8451Z" fill="#8D8D8D"/>
</svg>
