<svg width="28" height="26" viewBox="0 0 28 26" fill="none" xmlns="http://www.w3.org/2000/svg">
<path d="M12.2282 0.947264C12.3683 0.662958 12.5852 0.423549 12.8543 0.256138C13.1235 0.0887271 13.4341 0 13.751 0C14.068 0 14.3786 0.0887271 14.6477 0.256138C14.9169 0.423549 15.1338 0.662958 15.2739 0.947264L18.5504 7.58696L25.8794 8.65142C26.193 8.69696 26.4875 8.82933 26.7298 9.03358C26.972 9.23782 27.1522 9.50578 27.2501 9.80715C27.348 10.1085 27.3595 10.4312 27.2835 10.7388C27.2075 11.0464 27.0469 11.3266 26.8199 11.5477L21.5163 16.7172L22.7692 24.0156C22.8227 24.3278 22.7878 24.6488 22.6684 24.9422C22.549 25.2356 22.3499 25.4897 22.0936 25.6759C21.8374 25.862 21.5341 25.9728 21.2182 25.9956C20.9022 26.0184 20.5862 25.9524 20.3058 25.805L13.7527 22.3586L7.19621 25.805C6.91589 25.9519 6.60008 26.0176 6.28442 25.9945C5.96877 25.9715 5.66584 25.8606 5.40983 25.6746C5.15382 25.4885 4.95493 25.2345 4.83561 24.9414C4.71629 24.6482 4.68128 24.3276 4.73455 24.0156L5.98575 16.7155L0.682143 11.5477C0.455155 11.3266 0.294565 11.0464 0.218539 10.7388C0.142513 10.4312 0.154086 10.1085 0.25195 9.80715C0.349813 9.50578 0.53006 9.23782 0.772299 9.03358C1.01454 8.82933 1.3091 8.69696 1.62267 8.65142L8.95163 7.58696L12.2282 0.947264Z" fill="url(#paint0_linear_48_76)"/>
<defs>
<linearGradient id="paint0_linear_48_76" x1="27.3309" y1="26.5842" x2="-0.596221" y2="0.230833" gradientUnits="userSpaceOnUse">
<stop offset="1" stop-color="#FFCD0F"/>
</linearGradient>
</defs>
</svg>
